<svg width="32" height="32" viewBox="0 0 32 32" fill="none" xmlns="http://www.w3.org/2000/svg">
<path d="M31.2351 16.2994C31.2351 14.9883 31.1288 14.0316 30.8987 13.0395H15.9363V18.9568H24.7189C24.5419 20.4273 23.5857 22.6419 21.4608 24.1301L21.4311 24.3282L26.1619 27.9951L26.4897 28.0278C29.4998 25.2463 31.2351 21.1537 31.2351 16.2994Z" fill="#4285F4"/>
<path d="M15.9363 31.8901C20.239 31.8901 23.8512 30.4727 26.4896 28.0279L21.4608 24.1301C20.1151 25.0691 18.309 25.7246 15.9363 25.7246C11.722 25.7246 8.14526 22.9432 6.87024 19.0986L6.68335 19.1145L1.76416 22.9236L1.69983 23.1025C4.32043 28.3112 9.70337 31.8901 15.9363 31.8901Z" fill="#34A853"/>
<path d="M6.87024 19.0986C6.53381 18.1065 6.33911 17.0434 6.33911 15.945C6.33911 14.8465 6.53381 13.7836 6.85254 12.7914L6.84363 12.5801L1.86279 8.70985L1.69983 8.7874C0.619751 10.9489 0 13.3761 0 15.945C0 18.5139 0.619751 20.941 1.69983 23.1025L6.87024 19.0986Z" fill="#FBBC05"/>
<path d="M15.9363 6.16537C18.9287 6.16537 20.9473 7.45869 22.0983 8.53948L26.5958 4.14571C23.8336 1.57679 20.239 0 15.9363 0C9.70337 0 4.32043 3.57875 1.69983 8.78742L6.85254 12.7915C8.14526 8.94693 11.722 6.16537 15.9363 6.16537Z" fill="#EB4335"/>
</svg>
