<svg width="108" height="108" viewBox="0 0 108 108" fill="none" xmlns="http://www.w3.org/2000/svg">
<path d="M79.6238 20.2508H15.8778C9.94855 20.2508 5.14282 25.0747 5.14282 31.0214V76.9795C5.14282 82.9284 9.94855 87.7501 15.8778 87.7501H56.7209L76.9036 99V87.7501H79.6238C85.5531 87.7501 90.3588 82.9284 90.3588 76.9795V31.0214C90.3588 25.0747 85.5531 20.2508 79.6238 20.2508Z" fill="url(#paint0_linear_211_16)"/>
<path d="M32.9748 40.5005C38.6528 40.514 43.2523 45.1287 43.2657 50.8257V57.1751C43.2635 62.8788 38.6573 67.5003 32.9748 67.5003H29.8106C28.5727 67.5003 27.568 66.4923 27.568 65.2503V42.7505C27.568 41.5085 28.5727 40.5005 29.8106 40.5005H32.9748ZM32.9748 33.7506H25.1013C22.7488 33.7506 20.8405 35.6653 20.8405 38.0256V69.9753C20.8405 72.3377 22.7488 74.2502 25.1013 74.2502H32.9815C42.3777 74.248 49.9933 66.6048 49.9933 57.1751V50.8257C49.9933 41.396 42.3732 33.7506 32.9748 33.7506Z" fill="white"/>
<path d="M64.5698 54.0004C66.4266 54.0004 67.9335 55.5124 67.9335 57.3754V64.1253C67.9335 65.9883 66.4266 67.5003 64.5698 67.5003C62.7129 67.5003 61.206 65.9906 61.206 64.1253V57.3754C61.206 55.5124 62.7129 54.0004 64.5698 54.0004ZM64.5698 47.2505C58.9971 47.2505 54.4784 51.7842 54.4784 57.3754V64.1253C54.4784 69.7165 58.9971 74.2502 64.5698 74.2502C70.1424 74.2502 74.6611 69.7165 74.6611 64.1253V57.3754C74.6611 51.7842 70.1424 47.2505 64.5698 47.2505Z" fill="white"/>
<path d="M90.5538 9.0009H27.3729C23.8544 8.9919 20.5399 10.6614 18.4476 13.5009H90.5538C94.0813 13.4289 97.0033 16.2323 97.0863 19.7715V76.6375C99.8311 74.6575 101.549 71.476 101.571 67.9841V19.7715C101.493 13.7461 96.5593 8.9244 90.5538 9.0009Z" fill="#A9B5F4"/>
<defs>
<linearGradient id="paint0_linear_211_16" x1="13.4938" y1="86.9608" x2="82.1119" y2="26.5971" gradientUnits="userSpaceOnUse">
<stop stop-color="#495ECA"/>
<stop offset="1" stop-color="#A9B5F4"/>
</linearGradient>
</defs>
</svg>
