<svg width="56" height="56" viewBox="0 0 56 56" fill="none" xmlns="http://www.w3.org/2000/svg">
<rect x="1" y="1" width="54" height="54" rx="9" fill="#495ECA" stroke="#495ECA" stroke-width="2"/>
<path d="M23.3192 32.9252C22.8936 32.414 22.8936 31.586 23.3192 31.0748L27.2294 26.3825C27.6544 25.8725 28.345 25.8725 28.7706 26.3825L32.6808 31.0748C33.1064 31.586 33.1064 32.414 32.6808 32.9252L28.7706 37.6175C28.3456 38.1275 27.655 38.1275 27.2294 37.6175L23.3192 32.9252V32.9252Z" fill="white"/>
<path d="M31.3192 23.9252C30.8936 23.414 30.8936 22.586 31.3192 22.0748L35.2294 17.3825C35.6544 16.8725 36.345 16.8725 36.7706 17.3825L40.6808 22.0748C41.1064 22.586 41.1064 23.414 40.6808 23.9252L36.7706 28.6175C36.3456 29.1275 35.655 29.1275 35.2294 28.6175L31.3192 23.9252V23.9252Z" fill="white"/>
<path d="M14.3192 23.9252C13.8936 23.414 13.8936 22.586 14.3192 22.0748L18.2294 17.3825C18.6544 16.8725 19.345 16.8725 19.7706 17.3825L23.6808 22.0748C24.1064 22.586 24.1064 23.414 23.6808 23.9252L19.7706 28.6175C19.3456 29.1275 18.655 29.1275 18.2294 28.6175L14.3192 23.9252V23.9252Z" fill="white"/>
</svg>
