<svg width="14" height="10" viewBox="0 0 14 10" fill="none" xmlns="http://www.w3.org/2000/svg">
<path d="M1 2.14286C1 1.83975 1.12643 1.54906 1.35147 1.33474C1.57652 1.12041 1.88174 1 2.2 1H11.8C12.1183 1 12.4235 1.12041 12.6485 1.33474C12.8736 1.54906 13 1.83975 13 2.14286V7.85714C13 8.16025 12.8736 8.45094 12.6485 8.66527C12.4235 8.87959 12.1183 9 11.8 9H2.2C1.88174 9 1.57652 8.87959 1.35147 8.66527C1.12643 8.45094 1 8.16025 1 7.85714V2.14286Z" stroke="#1EC04C" stroke-width="2" stroke-linecap="round" stroke-linejoin="round"/>
<path d="M7 7C8.10457 7 9 6.10457 9 5C9 3.89543 8.10457 3 7 3C5.89543 3 5 3.89543 5 5C5 6.10457 5.89543 7 7 7Z" fill="#1EC04C"/>
</svg>
