<svg width="56" height="56" viewBox="0 0 56 56" fill="none" xmlns="http://www.w3.org/2000/svg">
<rect x="1" y="1" width="54" height="54" rx="9" fill="white" stroke="#CCCCCC" stroke-width="2"/>
<path d="M23.3192 29.9252C22.8936 29.414 22.8936 28.586 23.3192 28.0748L27.2294 23.3825C27.6544 22.8725 28.345 22.8725 28.7706 23.3825L32.6808 28.0748C33.1064 28.586 33.1064 29.414 32.6808 29.9252L28.7706 34.6175C28.3456 35.1275 27.655 35.1275 27.2294 34.6175L23.3192 29.9252V29.9252Z" fill="#CCCCCC"/>
<path d="M31.3192 20.9252C30.8936 20.414 30.8936 19.586 31.3192 19.0748L35.2294 14.3825C35.6544 13.8725 36.345 13.8725 36.7706 14.3825L40.6808 19.0748C41.1064 19.586 41.1064 20.414 40.6808 20.9252L36.7706 25.6175C36.3456 26.1275 35.655 26.1275 35.2294 25.6175L31.3192 20.9252V20.9252Z" fill="#CCCCCC"/>
<path d="M14.3192 20.9252C13.8936 20.414 13.8936 19.586 14.3192 19.0748L18.2294 14.3825C18.6544 13.8725 19.345 13.8725 19.7706 14.3825L23.6808 19.0748C24.1064 19.586 24.1064 20.414 23.6808 20.9252L19.7706 25.6175C19.3456 26.1275 18.655 26.1275 18.2294 25.6175L14.3192 20.9252V20.9252Z" fill="#CCCCCC"/>
<path d="M14.3192 38.9252C13.8936 38.414 13.8936 37.586 14.3192 37.0748L18.2294 32.3825C18.6544 31.8725 19.345 31.8725 19.7706 32.3825L23.6808 37.0748C24.1064 37.586 24.1064 38.414 23.6808 38.9252L19.7706 43.6175C19.3456 44.1275 18.655 44.1275 18.2294 43.6175L14.3192 38.9252V38.9252Z" fill="#CCCCCC"/>
</svg>
